<svg width="153" height="32" viewBox="0 0 153 32" fill="none" xmlns="http://www.w3.org/2000/svg">
<path fill-rule="evenodd" clip-rule="evenodd" d="M77.9809 19.2812L82.0275 20.1459C82.3734 20.2381 82.5924 20.3534 82.6847 20.4917C82.7999 20.6301 82.8576 20.8607 82.8576 21.1835C82.8576 21.6677 82.6962 22.002 82.3734 22.1865C82.0506 22.3709 81.4857 22.4632 80.6786 22.4632C79.3413 22.4632 77.9924 22.3709 76.632 22.1865C75.8951 22.0848 75.2282 21.9692 74.6313 21.8395C73.9708 21.6961 73.3117 22.1833 73.3117 22.8592V26.8572C73.3117 27.2726 73.5681 27.6482 73.97 27.7536C74.5887 27.9159 75.3838 28.0547 76.3553 28.1699C77.7388 28.3313 79.1684 28.412 80.6441 28.412C83.5263 28.412 85.6591 27.8356 87.0426 26.6827C88.426 25.5068 89.1177 23.6276 89.1177 21.0451C89.1177 20.0306 89.0255 19.1659 88.841 18.4511C88.6796 17.7363 88.403 17.1484 88.011 16.6872C87.6651 16.2722 87.204 15.9263 86.6275 15.6496C86.0511 15.3499 85.1749 15.0732 83.9989 14.8196L80.229 13.9895C79.9062 13.9203 79.6756 13.8165 79.5373 13.6782C79.422 13.5399 79.3644 13.3439 79.3644 13.0902C79.3644 12.606 79.5258 12.2602 79.8486 12.0526C80.1944 11.8451 80.7478 11.7414 81.5087 11.7414C82.3157 11.7414 83.0997 11.7759 83.8606 11.8451C84.4273 11.8795 85.2369 11.9777 86.2895 12.14C86.9011 12.2342 87.4576 11.765 87.4576 11.1461V7.37353C87.4576 6.92862 87.1643 6.53354 86.7291 6.44109C86.1828 6.32504 85.5725 6.23566 84.8982 6.17293C83.9067 6.05764 82.7884 6 81.5433 6C78.6611 6 76.5513 6.5995 75.214 7.7985C73.8766 8.99749 73.208 10.8652 73.208 13.4015C73.208 15.0847 73.5538 16.3875 74.2456 17.3098C74.9603 18.2321 76.2055 18.8892 77.9809 19.2812ZM96.3509 28.0316C96.9032 28.0316 97.3509 27.5839 97.3509 27.0316V20.9384C97.3509 20.3861 97.7987 19.9384 98.3509 19.9384H102.3C102.852 19.9384 103.3 20.3861 103.3 20.9384V27.0316C103.3 27.5839 103.748 28.0316 104.3 28.0316H108.733C109.285 28.0316 109.733 27.5839 109.733 27.0316V7.34586C109.733 6.79358 109.285 6.34586 108.733 6.34586H104.3C103.748 6.34586 103.3 6.79358 103.3 7.34586V13.1278C103.3 13.6801 102.852 14.1278 102.3 14.1278H98.3509C97.7987 14.1278 97.3509 13.6801 97.3509 13.1278V7.34586C97.3509 6.79358 96.9032 6.34586 96.3509 6.34586H91.9524C91.4002 6.34586 90.9524 6.79358 90.9524 7.34586V27.0316C90.9524 27.5839 91.4002 28.0316 91.9524 28.0316H96.3509ZM132.667 17.1714C132.667 21.1373 131.837 24.008 130.177 25.7835C128.54 27.5358 125.888 28.412 122.222 28.412C118.417 28.412 115.731 27.5704 114.163 25.8872C112.595 24.204 111.811 21.2988 111.811 17.1714C111.811 13.2516 112.63 10.4155 114.267 8.66316C115.927 6.88772 118.579 6 122.222 6C126.026 6 128.713 6.8416 130.281 8.52481C131.871 10.185 132.667 13.0672 132.667 17.1714ZM118.314 17.1714C118.314 19.2236 118.556 20.607 119.04 21.3218C119.547 22.0366 120.608 22.394 122.222 22.394C123.859 22.394 124.92 22.0481 125.404 21.3564C125.911 20.6416 126.165 19.2466 126.165 17.1714C126.165 15.0501 125.911 13.6321 125.404 12.9173C124.897 12.1795 123.836 11.8105 122.222 11.8105C120.608 11.8105 119.547 12.1795 119.04 12.9173C118.556 13.6321 118.314 15.0501 118.314 17.1714ZM141.124 23.2902C141.124 22.7379 141.572 22.2902 142.124 22.2902H142.958C146.209 22.2902 148.595 21.6331 150.117 20.3188C151.639 19.0045 152.4 16.9524 152.4 14.1624C152.4 11.3263 151.673 9.3203 150.221 8.14436C148.791 6.94536 146.335 6.34586 142.854 6.34586H135.726C135.174 6.34586 134.726 6.79358 134.726 7.34586V27.0316C134.726 27.5839 135.174 28.0316 135.726 28.0316H140.124C140.677 28.0316 141.124 27.5839 141.124 27.0316V23.2902ZM145.275 12.6406C145.667 12.9634 145.863 13.5053 145.863 14.2662C145.863 15.1654 145.667 15.7995 145.275 16.1684C144.883 16.5373 144.18 16.7218 143.165 16.7218H142.124C141.572 16.7218 141.124 16.2741 141.124 15.7218V13.1564C141.124 12.6041 141.572 12.1564 142.124 12.1564H143.165C144.18 12.1564 144.883 12.3178 145.275 12.6406ZM14.0421 23.2441C14.0421 22.6918 13.5944 22.2441 13.0421 22.2441H7.3985C6.84621 22.2441 6.3985 21.7964 6.3985 21.2441V7.57643C6.3985 7.02415 5.95078 6.57643 5.3985 6.57643H1C0.447715 6.57643 0 7.02415 0 7.57643V27.2622C0 27.8144 0.447715 28.2622 0.999999 28.2622H13.0421C13.5944 28.2622 14.0421 27.8144 14.0421 27.2622V23.2441ZM22.2394 7.57643C22.2394 7.02415 21.7917 6.57643 21.2394 6.57643H16.8409C16.2886 6.57643 15.8409 7.02415 15.8409 7.57643V27.2622C15.8409 27.8144 16.2886 28.2622 16.8409 28.2622H21.2394C21.7917 28.2622 22.2394 27.8144 22.2394 27.2622V7.57643ZM43.1567 6.57643C43.709 6.57643 44.1567 7.02415 44.1567 7.57643V27.2622C44.1567 27.8144 43.709 28.2622 43.1567 28.2622H38.6383C38.3044 28.2622 37.9926 28.0956 37.807 27.8181L31.2763 18.0534C31.1664 17.889 30.91 17.9668 30.91 18.1646V27.2622C30.91 27.8144 30.4623 28.2622 29.91 28.2622H25.9266C25.3743 28.2622 24.9266 27.8144 24.9266 27.2622V7.57643C24.9266 7.02415 25.3743 6.57643 25.9266 6.57643H30.3629C30.7038 6.57643 31.0212 6.75012 31.2051 7.03723L37.8048 17.3453C37.9125 17.5136 38.1732 17.4373 38.1732 17.2375V7.57643C38.1732 7.02415 38.6209 6.57643 39.1732 6.57643H43.1567ZM60.3197 17.6129C60.099 17.2757 60.1024 16.8389 60.3283 16.505L65.9899 8.1368C66.4392 7.47272 65.9635 6.57643 65.1617 6.57643H59.9938C59.6474 6.57643 59.3257 6.75572 59.1434 7.05033L54.6018 14.3915C54.4683 14.6074 54.2324 14.7388 53.9785 14.7388C53.5738 14.7388 53.2456 14.4107 53.2456 14.0059V7.57643C53.2456 7.02415 52.7979 6.57643 52.2456 6.57643H47.8471C47.2948 6.57643 46.8471 7.02415 46.8471 7.57643V27.2622C46.8471 27.8144 47.2948 28.2622 47.8471 28.2622H52.2456C52.7979 28.2622 53.2456 27.8144 53.2456 27.2622V20.5126C53.2456 20.1127 53.5698 19.7885 53.9697 19.7885C54.228 19.7885 54.4667 19.926 54.5962 20.1495L59.0093 27.7636C59.1881 28.0722 59.5178 28.2622 59.8745 28.2622H65.4384C66.2332 28.2622 66.7103 27.3797 66.2751 26.7146L60.3197 17.6129Z" fill="#14151A"/>
</svg>
